<?xml version="1.0" standalone="no"?>
<!DOCTYPE svg PUBLIC "-//W3C//DTD SVG 20010904//EN"
 "http://www.w3.org/TR/2001/REC-SVG-20010904/DTD/svg10.dtd">
<svg version="1.0" xmlns="http://www.w3.org/2000/svg"
 width="200.000000pt" height="150.000000pt" viewBox="0 0 200.000000 150.000000"
 preserveAspectRatio="xMidYMid meet">
<metadata>
Created by potrace 1.16, written by Peter Selinger 2001-2019
</metadata>
<g transform="translate(0.000000,150.000000) scale(0.100000,-0.100000)"
fill="#000000" stroke="none">
<path d="M512 1063 c-94 -46 -220 -248 -244 -388 -16 -99 -5 -160 37 -202 42
-42 69 -42 199 -3 55 17 111 30 125 30 30 0 89 -33 97 -54 5 -12 9 -11 25 5
23 23 73 25 113 4 44 -23 41 -12 -8 33 -50 46 -108 66 -164 56 -20 -3 -86 -22
-147 -41 -123 -39 -162 -38 -195 4 -25 33 -27 134 -4 214 48 162 195 362 236
321 9 -9 6 -18 -11 -36 -14 -15 -21 -32 -18 -40 15 -39 47 0 47 56 0 58 -28
71 -88 41z"/>
<path d="M1232 1059 c-139 -69 -306 -395 -278 -544 15 -79 72 -96 134 -41 86
78 140 273 78 284 -39 8 -92 -71 -111 -163 l-5 -30 35 37 c19 21 35 46 35 57
0 20 36 71 51 71 18 0 8 -76 -17 -130 -71 -153 -158 -145 -133 12 19 120 114
304 200 390 64 64 91 65 44 2 -62 -81 -85 -167 -48 -181 37 -14 113 116 113
194 0 42 40 28 128 -44 l40 -33 17 26 c9 14 15 27 13 28 -2 1 -21 16 -44 34
-59 45 -90 55 -131 41 -26 -8 -38 -8 -46 0 -15 15 -26 14 -75 -10z"/>
<path d="M1571 1014 c-62 -68 -120 -166 -171 -287 -21 -51 -43 -93 -49 -95
-13 -4 -13 1 -2 48 10 44 -2 80 -28 80 -26 0 -83 -66 -116 -136 -35 -74 -42
-176 -12 -182 27 -5 74 43 108 111 16 31 34 57 39 57 13 0 12 -7 -1 -71 -8
-37 -8 -58 0 -75 14 -31 32 -30 62 2 l24 26 5 -24 c8 -30 34 -34 59 -9 26 26
31 26 31 1 0 -27 31 -26 57 3 29 30 86 127 80 133 -2 3 -19 -18 -36 -45 -17
-28 -35 -51 -41 -51 -15 0 -15 0 40 127 28 64 50 118 50 121 0 2 -13 2 -30 0
-16 -3 -30 -1 -30 4 0 4 -9 8 -19 8 -28 0 -78 -64 -132 -166 -48 -94 -69 -114
-69 -67 0 56 23 108 66 155 48 52 147 198 139 206 -3 3 -6 3 -8 1 -1 -2 -28
-43 -60 -90 -100 -151 -115 -143 -37 20 59 122 138 237 152 223 6 -6 6 -17 -1
-31 -8 -13 -8 -21 -2 -21 13 0 25 45 17 65 -10 27 -33 16 -85 -41z"/>
<path d="M521 882 c-91 -96 -135 -282 -67 -282 30 0 67 42 107 121 16 33 34
59 40 59 7 0 8 -7 4 -17 -5 -10 -12 -38 -18 -63 -20 -97 34 -133 99 -65 l33
35 3 -32 c4 -41 31 -48 64 -17 l24 22 0 -21 c0 -33 33 -28 64 9 33 39 80 118
74 125 -3 2 -19 -18 -36 -46 -17 -27 -36 -50 -42 -50 -15 0 -15 0 40 127 28
64 49 117 48 118 -2 1 -22 5 -46 9 -40 6 -46 4 -73 -25 -16 -18 -51 -69 -76
-115 -72 -130 -123 -167 -123 -89 0 60 75 205 106 205 18 0 18 -14 -1 -30 -8
-7 -15 -24 -15 -39 l1 -26 19 24 c21 25 27 85 9 96 -22 14 -59 -7 -93 -54 -47
-64 -69 -74 -60 -26 16 88 -25 111 -85 47z"/>
</g>
</svg>
