<?xml version="1.0" standalone="no"?>
<!DOCTYPE svg PUBLIC "-//W3C//DTD SVG 20010904//EN"
 "http://www.w3.org/TR/2001/REC-SVG-20010904/DTD/svg10.dtd">
<svg version="1.0" xmlns="http://www.w3.org/2000/svg"
 width="200.000000pt" height="150.000000pt" viewBox="0 0 200.000000 150.000000"
 preserveAspectRatio="xMidYMid meet">
<metadata>
Created by potrace 1.16, written by Peter Selinger 2001-2019
</metadata>
<g transform="translate(0.000000,150.000000) scale(0.100000,-0.100000)"
fill="#000000" stroke="none">
<path d="M976 1175 c-4 -16 -14 -54 -22 -82 l-15 -53 -75 0 -75 0 60 -50 60
-50 -20 -71 c-11 -39 -18 -73 -16 -75 1 -2 27 16 57 40 l55 44 55 -44 c30 -24
56 -41 58 -40 3 3 -23 99 -35 133 -2 6 23 34 57 62 l61 51 -74 0 -74 0 -25 83
c-22 75 -25 80 -32 52z"/>
<path d="M290 671 c0 -6 5 -13 10 -16 6 -3 10 -48 10 -100 0 -52 -4 -97 -10
-100 -5 -3 -10 -13 -10 -21 0 -10 12 -14 45 -14 33 0 45 4 45 15 0 8 -5 15
-11 15 -6 0 -9 19 -7 47 3 43 5 48 28 48 23 0 25 -5 28 -48 2 -28 -1 -47 -7
-47 -6 0 -11 -7 -11 -15 0 -11 12 -15 45 -15 33 0 45 4 45 14 0 8 -4 18 -10
21 -6 3 -10 48 -10 101 0 56 4 94 10 94 6 0 10 7 10 15 0 11 -11 15 -39 15
-40 0 -61 -13 -41 -25 5 -3 10 -22 10 -41 0 -31 -2 -34 -30 -34 -28 0 -30 3
-30 34 0 19 5 38 10 41 6 4 8 11 5 16 -8 12 -85 12 -85 0z"/>
<path d="M1145 671 c-3 -5 -1 -12 5 -16 6 -3 10 -49 10 -105 0 -56 -4 -102
-10 -105 -20 -12 1 -25 41 -25 37 0 51 12 29 25 -12 7 -13 52 -2 59 4 2 18
-15 31 -40 18 -32 30 -44 47 -44 25 0 40 15 24 25 -6 4 -21 28 -35 54 l-24 48
24 23 c34 32 31 40 -11 40 -30 0 -34 -3 -30 -18 4 -12 -1 -26 -14 -37 -20 -18
-20 -18 -20 53 l0 72 -29 0 c-17 0 -32 -4 -36 -9z"/>
<path d="M539 600 c-25 -15 -42 -65 -35 -104 8 -41 47 -76 85 -76 32 0 71 25
71 46 0 18 -14 18 -30 -1 -15 -18 -42 -19 -58 -3 -19 19 -15 23 38 48 28 13
50 29 50 35 0 7 -9 24 -21 39 -22 27 -68 35 -100 16z"/>
<path d="M789 600 c-8 -6 -8 -9 0 -14 14 -9 15 -136 1 -136 -5 0 -10 -7 -10
-15 0 -11 11 -15 39 -15 l39 0 -5 64 c-6 74 0 98 22 90 11 -5 15 -22 15 -69 0
-42 5 -66 15 -75 18 -15 55 -4 55 16 0 8 -4 12 -10 9 -6 -4 -10 17 -10 55 0
89 -7 98 -79 97 -33 0 -65 -3 -72 -7z"/>
<path d="M1000 590 c-42 -42 -36 -117 12 -153 23 -17 34 -19 64 -11 36 9 65
37 52 49 -3 4 -18 -1 -32 -10 -27 -18 -61 -13 -69 9 -3 8 14 21 49 35 30 13
54 29 54 36 0 7 -9 24 -21 39 -26 33 -79 36 -109 6z"/>
<path d="M1351 584 c-25 -32 -28 -94 -5 -129 21 -32 72 -42 113 -21 17 9 31
24 31 32 0 9 -3 14 -7 12 -5 -2 -21 -10 -36 -18 -20 -10 -33 -11 -45 -4 -28
18 -23 29 30 54 29 14 54 30 55 36 2 6 -6 23 -17 37 -30 38 -90 38 -119 1z"/>
<path d="M1518 530 c3 -51 1 -80 -7 -84 -24 -15 -9 -26 34 -26 45 0 54 7 34
27 -5 5 -9 37 -7 69 2 44 7 59 18 59 12 0 16 -15 18 -67 3 -72 17 -94 52 -83
20 6 28 25 10 25 -6 0 -10 30 -10 69 0 43 -5 72 -12 78 -7 6 -40 10 -74 10
l-60 0 4 -77z"/>
</g>
</svg>
