<?xml version="1.0" standalone="no"?>
<!DOCTYPE svg PUBLIC "-//W3C//DTD SVG 20010904//EN"
 "http://www.w3.org/TR/2001/REC-SVG-20010904/DTD/svg10.dtd">
<svg version="1.0" xmlns="http://www.w3.org/2000/svg"
 width="200.000000pt" height="150.000000pt" viewBox="0 0 200.000000 150.000000"
 preserveAspectRatio="xMidYMid meet">
<metadata>
Created by potrace 1.16, written by Peter Selinger 2001-2019
</metadata>
<g transform="translate(0.000000,150.000000) scale(0.100000,-0.100000)"
fill="#000000" stroke="none">
<path d="M421 1096 c19 -33 20 -36 3 -61 -17 -26 -19 -26 -31 -9 -7 10 -13 22
-13 28 0 5 -2 7 -5 4 -3 -2 0 -19 6 -37 9 -27 8 -35 -6 -51 -26 -28 -41 -25
-52 13 -10 32 -11 32 -9 -13 l1 -45 -52 0 c-43 0 -50 -2 -39 -13 15 -15 41
-18 78 -9 25 7 29 3 42 -25 16 -37 21 -24 7 15 -8 20 -5 29 15 48 28 26 44 18
47 -27 2 -24 -6 -34 -47 -61 -26 -18 -52 -33 -58 -33 -5 0 -16 15 -24 33 l-15
32 6 -32 c6 -28 4 -33 -12 -33 -11 0 -23 3 -29 8 -5 4 -1 -1 9 -10 11 -10 27
-18 38 -18 10 0 26 -13 36 -30 28 -48 78 -34 118 35 l18 30 -26 -30 c-22 -25
-28 -28 -37 -15 -14 22 -12 35 10 55 11 10 31 37 44 59 26 45 46 123 28 113
-5 -4 -13 5 -16 21 -8 34 -38 92 -48 92 -4 0 2 -15 13 -34z"/>
<path d="M1209 879 c-34 -13 -53 -58 -46 -105 8 -48 22 -62 73 -75 37 -10 44
-15 44 -35 0 -17 -6 -24 -20 -24 -11 0 -23 7 -26 15 -4 9 -19 15 -41 15 -35 0
-35 -1 -29 -32 9 -46 39 -68 93 -68 65 0 93 31 93 103 0 63 -9 74 -79 98 -47
16 -61 41 -27 47 11 2 25 -3 32 -13 8 -10 23 -15 41 -13 23 2 27 7 25 28 -7
53 -74 82 -133 59z"/>
<path d="M1515 879 c-33 -16 -48 -49 -53 -120 -6 -87 4 -136 33 -165 26 -26
81 -32 117 -13 20 11 48 65 48 94 0 26 -52 18 -77 -12 l-23 -28 -20 24 c-14
16 -20 38 -20 72 0 80 54 115 75 48 9 -28 65 -27 65 1 0 81 -76 133 -145 99z"/>
<path d="M1720 862 c-53 -54 -53 -210 0 -264 30 -30 83 -38 119 -18 45 24 67
172 37 244 -29 70 -105 88 -156 38z"/>
<path d="M560 730 l0 -150 30 0 c29 0 30 2 30 44 l0 43 47 6 c60 7 73 24 73
104 0 88 -16 103 -110 103 l-70 0 0 -150z"/>
<path d="M770 730 l0 -150 80 0 80 0 0 35 0 35 -50 0 c-43 0 -50 3 -50 20 0
17 7 20 45 20 45 0 45 0 45 35 0 35 0 35 -45 35 -41 0 -45 2 -45 25 0 23 3 25
50 25 l50 0 0 35 0 35 -80 0 -80 0 0 -150z"/>
<path d="M960 730 l0 -150 30 0 c29 0 30 2 30 44 l0 43 42 6 c63 8 81 36 76
116 -5 80 -18 91 -110 91 l-68 0 0 -150z"/>
<path d="M1380 731 l0 -151 25 0 25 0 0 140 c0 77 0 143 0 148 0 4 -11 8 -25
10 l-25 3 0 -150z"/>
</g>
</svg>
