<?xml version="1.0" standalone="no"?>
<!DOCTYPE svg PUBLIC "-//W3C//DTD SVG 20010904//EN"
 "http://www.w3.org/TR/2001/REC-SVG-20010904/DTD/svg10.dtd">
<svg version="1.0" xmlns="http://www.w3.org/2000/svg"
 width="200.000000pt" height="150.000000pt" viewBox="0 0 200.000000 150.000000"
 preserveAspectRatio="xMidYMid meet">
<metadata>
Created by potrace 1.16, written by Peter Selinger 2001-2019
</metadata>
<g transform="translate(0.000000,150.000000) scale(0.100000,-0.100000)"
fill="#000000" stroke="none">
<path d="M1402 1160 c-12 -12 -22 -28 -22 -36 0 -33 -65 -137 -112 -179 -64
-57 -141 -86 -248 -92 -100 -6 -154 -19 -146 -38 3 -9 -12 -14 -57 -18 -34 -3
-72 -8 -84 -12 -20 -7 -21 -5 -12 35 5 22 10 46 12 53 3 16 -124 21 -181 7
-91 -23 -169 -100 -179 -179 -8 -57 2 -86 48 -136 28 -30 40 -51 37 -67 -4
-31 -48 -36 -92 -10 l-33 19 -36 -73 c-21 -41 -37 -78 -37 -83 0 -19 74 -33
141 -29 51 4 81 13 123 37 55 31 56 31 51 9 -11 -54 -26 -150 -23 -154 3 -3
106 76 166 127 14 12 22 30 22 49 0 24 9 37 48 65 58 42 66 43 59 5 -4 -16 -5
-30 -3 -30 2 0 42 20 90 44 138 70 273 117 439 151 15 3 27 12 27 20 0 18 -3
17 40 5 70 -20 167 35 210 120 17 33 17 38 3 62 -15 24 -15 28 5 56 28 38 28
86 2 112 -24 24 -48 25 -97 5 -48 -20 -50 -20 -45 16 4 27 2 30 -14 26 -11 -4
-31 -9 -45 -12 l-26 -6 5 75 c5 81 0 89 -36 56z m11 -89 l-6 -70 37 11 c60 19
63 -16 4 -51 -18 -11 -38 -24 -44 -29 -5 -5 -16 -66 -23 -136 -8 -69 -19 -130
-25 -134 -14 -11 -89 -33 -94 -27 -2 2 5 62 15 134 l19 131 -25 0 c-23 0 -21
3 23 48 26 26 63 79 83 120 20 39 37 72 39 72 2 0 0 -31 -3 -69z m208 -91 c44
-24 15 -112 -49 -148 -53 -30 -56 -28 -26 15 30 44 40 81 26 95 -25 25 -83
-143 -62 -182 17 -31 54 -25 90 16 36 41 49 40 27 -3 -30 -57 -97 -103 -150
-103 -11 0 -31 10 -44 22 -50 47 -15 181 67 251 37 31 52 39 93 46 5 0 17 -4
28 -9z m-398 -177 c-8 -49 -17 -110 -21 -138 -7 -48 -8 -50 -56 -68 -27 -10
-50 -16 -52 -14 -3 2 6 64 19 137 l23 133 44 17 c25 10 48 18 51 19 3 1 0 -38
-8 -86z m-533 55 c0 -7 -5 -29 -10 -49 l-10 -37 -37 19 c-39 20 -66 17 -95 -9
-27 -23 -22 -38 26 -90 25 -27 50 -61 56 -77 34 -89 -57 -225 -171 -259 -58
-18 -115 -21 -123 -7 -3 4 2 33 10 64 l16 55 35 -14 c63 -27 133 14 133 78 0
19 -12 36 -44 63 -25 20 -49 50 -55 67 -23 65 26 154 104 189 48 22 165 26
165 7z m426 -34 c-3 -9 -6 -20 -6 -24 0 -5 -12 -15 -27 -22 -41 -20 -62 -58
-73 -128 -17 -108 -17 -108 -70 -135 -34 -17 -50 -21 -50 -13 0 7 9 66 20 130
14 84 16 126 9 150 -5 18 -9 33 -9 34 0 1 12 4 28 7 17 3 34 -1 46 -11 17 -16
19 -16 33 6 12 17 25 22 60 22 37 0 44 -3 39 -16z m-241 -69 c61 -60 6 -210
-103 -277 -37 -23 -53 -17 -30 9 32 36 60 108 65 165 5 49 3 59 -12 64 -11 5
-22 1 -29 -8 -6 -8 -24 -90 -40 -181 l-29 -165 -44 -32 c-24 -18 -47 -30 -50
-26 -3 3 9 87 27 186 26 145 30 186 21 206 -8 19 -8 26 2 29 6 3 41 16 77 29
84 32 115 32 145 1z"/>
</g>
</svg>
